# xmcd
#
# Track frame offsets:
#	150
#	14901
#	38820
#	55579
#	70460
#	91386
#	114535
#	131268
#	150769
#	167190
#	189604
#	205619
#	224736
#	242344
#	259880
#	288134
#	303858
#	324984
#
# Disc length: 4555 seconds
#
# Revision: 0
# Processed by: cddbd v1.5.1PL2 Copyright (c) Steve Scherf et al.
# Submitted via: dBpowerAMP V4.0
#
DISCID=f711c912
DTITLE=Dr. Mablues - get your backup (2)
DYEAR=2005
DGENRE=Blues-Rock
TTITLE0=running down the road
TTITLE1=a night on the train
TTITLE2=the pneumonia blues
TTITLE3=stupid
TTITLE4=it serves me right to suffer
TTITLE5=I'll be there
TTITLE6=fire and rain
TTITLE7=I just can't please her
TTITLE8=hey, mama
TTITLE9=wrapped around your finger
TTITLE10=down in new orlens
TTITLE11=rosalita
TTITLE12=fly me to the moon
TTITLE13=easy targets
TTITLE14=the cold wind says
TTITLE15=don't make it too late
TTITLE16=in the game
TTITLE17=ain't wastin' time
EXTD=
EXTT0=
EXTT1=
EXTT2=
EXTT3=
EXTT4=
EXTT5=
EXTT6=
EXTT7=
EXTT8=
EXTT9=
EXTT10=
EXTT11=
EXTT12=
EXTT13=
EXTT14=
EXTT15=
EXTT16=
EXTT17=
PLAYORDER=
